<svg width="200" height="200" viewBox="0 0 200 200" fill="none" xmlns="http://www.w3.org/2000/svg">
<path d="M200 100C200 126.839 189.427 151.21 172.218 169.171C172.118 169.276 172.016 169.381 171.913 169.486C153.729 188.302 128.232 200 100 200C71.7682 200 46.2705 188.302 28.0867 169.486C27.9842 169.381 27.8817 169.276 27.7819 169.171C10.5729 151.21 0 126.839 0 100C0 44.771 44.7712 0 100 0C155.23 0 200 44.771 200 100Z" fill="#2859E5"/>
<path d="M99.9996 105.607C121.238 105.607 138.454 88.3905 138.454 67.1527C138.454 45.9149 121.238 28.6982 99.9996 28.6982C78.7618 28.6982 61.545 45.9149 61.545 67.1527C61.545 88.3905 78.7618 105.607 99.9996 105.607Z" fill="#4BABF9"/>
<path d="M171.913 163.632V169.486C153.729 188.302 128.231 200 99.9996 200C71.7678 200 46.2701 188.302 28.0863 169.486V163.632C28.0863 134.073 45.2303 118.389 99.9996 118.389C156.796 118.389 171.913 136.69 171.913 163.632Z" fill="#4BABF9"/>
</svg>
